<svg xmlns="http://www.w3.org/2000/svg" xmlns:xlink="http://www.w3.org/1999/xlink" width="115" height="64" viewBox="0 0 115 64"><path fill="#498070" d="M.9 62.7h2.7v.8H.1v-7.3h.8zM5 60.9c0 .6.1 1.1.4 1.5.2.3.6.5 1 .5s.7-.2 1-.6c.3-.4.4-1 .4-1.8V59c-.3-.2-.7-.3-1-.3-.5 0-.9.2-1.2.6-.5.4-.6 1-.6 1.6m1.1 2.8c-.6 0-1-.2-1.4-.7-.4-.5-.5-1.1-.5-2 0-.9.2-1.6.7-2.1.5-.5 1-.8 1.7-.8s1.3.2 1.8.6v3.8l.1 1.1-.6.1-.2-1c-.4.6-.9 1-1.6 1m10.3-3c0-.7-.1-1.1-.3-1.5-.2-.3-.5-.5-.9-.5s-.7.2-1 .6c-.3.4-.4 1-.4 1.8v.3c0 .5.1.8.3 1.1.2.3.4.4.8.4.5 0 .9-.2 1.2-.6.1-.4.3-.9.3-1.6M13.7 56v3c.4-.7.9-1 1.6-1 .5 0 1 .2 1.3.7.3.5.5 1.1.5 2 0 .9-.2 1.6-.7 2.1-.5.5-1 .8-1.7.8s-1.1-.2-1.4-.6c-.3-.4-.4-1-.4-1.6V56h.8m5 2.1h.7v5.4h-.7v-5.4zm0-1.1c-.1-.1-.1-.2-.1-.4s0-.3.1-.4c.1-.1.2-.1.3-.1.2 0 .3.1.4.2.1.1.1.2.1.4 0 .1 0 .3-.1.4-.1.1-.2.2-.4.2-.1-.2-.2-.2-.3-.3m3.4 2.3c-.2.4-.4.9-.4 1.5s.1 1.1.4 1.5c.2.4.6.6 1.1.6s.8-.2 1.1-.6c.2-.4.4-.9.4-1.5s-.1-1.1-.4-1.5c-.2-.4-.6-.6-1.1-.6s-.8.2-1.1.6m-.5 3.6c-.4-.5-.5-1.2-.5-2s.2-1.5.5-2c.4-.5.9-.8 1.6-.8s1.3.3 1.6.8c.4.5.5 1.2.5 2s-.2 1.5-.5 2c-.4.5-.9.8-1.6.8s-1.3-.3-1.6-.8m9.9-4.2c-.4 0-.8.2-1.1.5-.3.4-.5.8-.5 1.4.2 0 .5.1.7.1.6 0 1-.1 1.3-.3.3-.2.4-.5.4-.8 0-.2-.1-.4-.2-.6-.1-.2-.3-.3-.6-.3m-.3 5c-.6 0-1.1-.2-1.4-.7-.4-.5-.6-1.1-.6-2s.2-1.6.7-2.2c.4-.6 1-.8 1.7-.8.5 0 .8.2 1.1.5.3.3.4.7.4 1.1 0 .5-.2.9-.6 1.2-.4.4-1 .6-1.9.6h-.7c0 .5.2.9.4 1.2.2.3.5.4.9.4.6 0 1-.2 1.4-.6l.4.5c-.5.5-1.1.8-1.8.8m4.6-.8c.3 0 .5-.1.7-.2.2-.2.3-.3.3-.6s-.1-.4-.2-.5c-.1-.1-.2-.2-.4-.3-.1-.1-.3-.1-.5-.2s-.4-.1-.5-.2c-.1-.1-.3-.1-.4-.3-.3-.2-.5-.6-.5-1.1 0-.5.2-.9.5-1.2.3-.3.7-.4 1.1-.4.3 0 .5 0 .8.1.3.1.5.2.6.2l-.3.8c-.3-.2-.7-.3-1.1-.3-.2 0-.4.1-.6.2-.2.1-.3.3-.3.5s.1.4.2.5c.1.1.2.2.3.2.1.1.3.1.5.2s.4.1.6.2c.1.1.3.2.5.3.3.3.5.6.5 1.2s-.3 1-.6 1.2c-.3.3-.8.4-1.3.4-.7 0-1.2-.2-1.7-.7l.4-.6c.4.4.8.6 1.4.6m2.6-4.1v-.7h.7l.2-1.6h.5v1.6H41v.7h-1.1v3.5c0 .4.1.6.4.6.2 0 .5-.1.7-.3l.3.5c-.4.3-.7.5-1.1.5s-.6-.1-.8-.3c-.2-.2-.3-.5-.3-1v-3.5h-.7m7 2.1c0 .6.1 1.1.4 1.5.2.3.6.5 1 .5s.7-.2 1-.6c.3-.4.4-1 .4-1.8V59c-.3-.2-.7-.3-1-.3-.5 0-.9.2-1.2.6-.5.4-.6 1-.6 1.6m1.2 2.8c-.6 0-1-.2-1.4-.7-.4-.5-.5-1.1-.5-2 0-.9.2-1.6.7-2.1.5-.5 1-.8 1.7-.8.3 0 .7.1 1 .2V56h.7v6.4l.1 1.1-.6.1-.2-1c-.4.7-.9 1.1-1.5 1.1m4.5-2.8c0 .6.1 1.1.4 1.5.2.3.6.5 1 .5s.7-.2 1-.6c.3-.4.4-1 .4-1.8V59c-.3-.2-.7-.3-1-.3-.5 0-.9.2-1.2.6-.4.4-.6 1-.6 1.6m1.2 2.8c-.6 0-1-.2-1.4-.7-.4-.5-.5-1.1-.5-2 0-.9.2-1.6.7-2.1.5-.5 1-.8 1.7-.8s1.3.2 1.8.6v3.8l.1 1.1H54l-.2-1c-.3.7-.8 1.1-1.5 1.1m6.6-5.7c1.1 0 1.6.8 1.6 2.3v3.3h-.7v-3.3c0-1-.3-1.5-1-1.5-.4 0-.7.2-1 .6-.3.4-.5 1-.5 1.8v2.4h-.7v-4.3l-.1-1.1.6-.1.2 1.1c.2-.4.5-.7.8-.9.2-.2.5-.3.8-.3m4.6 4.9c.3 0 .5-.1.7-.2.2-.2.3-.3.3-.6s-.1-.4-.2-.5c-.1-.1-.2-.2-.4-.3-.1-.1-.3-.1-.5-.2-.1-.1-.3-.1-.4-.2-.1-.1-.3-.1-.4-.3-.3-.2-.5-.6-.5-1.1 0-.5.2-.9.5-1.2s.7-.4 1.1-.4c.3 0 .5 0 .8.1.3.1.5.2.6.2l-.3.8c-.3-.2-.7-.3-1.1-.3-.2 0-.4.1-.6.2-.2.1-.3.3-.3.5s.1.4.2.5c.1.1.2.2.3.2.1.1.3.1.5.2s.4.1.6.2c.1.1.3.2.5.3.3.3.5.6.5 1.2s-.2.9-.5 1.2c-.3.3-.8.4-1.3.4-.7 0-1.2-.2-1.7-.7l.4-.6c.3.4.7.6 1.2.6m8.1-4.9c.8 0 1.3.4 1.5 1.3.2-.4.4-.8.7-1 .3-.2.6-.3.9-.3.5 0 .9.2 1.2.6.3.4.4.9.4 1.7v3.3h-.7v-3.3c0-1-.3-1.5-.9-1.5-.4 0-.7.2-1 .6-.3.4-.4 1-.5 1.8v2.4h-.7v-3.3c0-1-.3-1.5-.9-1.5-.4 0-.7.2-1 .6-.3.4-.4 1-.5 1.8v2.4h-.7v-4.3l-.1-1.1.6-.1.2 1.1c.2-.4.4-.7.7-.9.3-.2.6-.3.8-.3m6.8 2.9c0 .6.1 1.1.4 1.5.2.3.6.5 1 .5s.7-.2 1-.6c.3-.4.4-1 .4-1.8V59c-.3-.2-.7-.3-1-.3-.5 0-.9.2-1.2.6-.4.4-.6 1-.6 1.6m1.2 2.8c-.6 0-1-.2-1.4-.7-.4-.5-.5-1.1-.5-2 0-.9.2-1.6.7-2.1.5-.5 1-.8 1.7-.8s1.3.2 1.8.6v3.8l.1 1.1-.6.1-.2-1c-.4.6-.9 1-1.6 1m9.3-5.7c1.1 0 1.6.8 1.6 2.3v3.3h-.7v-3.3c0-1-.3-1.5-1-1.5-.4 0-.7.2-1 .6-.3.4-.5 1-.5 1.8v2.4h-.7v-4.3l-.1-1.1.6-.1.2 1.1c.2-.4.5-.7.8-.9.2-.2.5-.3.8-.3m3.7 2.9c0 .6.1 1.1.4 1.5.2.3.6.5 1 .5s.7-.2 1-.6c.3-.4.4-1 .4-1.8V59c-.3-.2-.7-.3-1-.3-.5 0-.9.2-1.2.6-.4.4-.6 1-.6 1.6m1.2 2.8c-.6 0-1-.2-1.4-.7-.4-.5-.5-1.1-.5-2 0-.9.2-1.6.7-2.1.5-.5 1-.8 1.7-.8s1.3.2 1.8.6v3.8l.1 1.1-.6.1-.2-1c-.4.6-.9 1-1.6 1m3.6-4.9v-.7h.7l.2-1.6h.5v1.6h1.1v.7h-1.1v3.5c0 .4.1.6.4.6.2 0 .5-.1.7-.3l.3.5c-.4.3-.7.5-1.1.5s-.6-.1-.8-.3c-.2-.2-.3-.5-.3-1v-3.5h-.6zm3.9-.7h.7v3.3c0 1 .3 1.5 1 1.5.4 0 .7-.2 1-.6.3-.4.5-1 .5-1.8v-2.4h.7v4.3l.1 1.1-.6.1-.2-1.1c-.2.4-.4.7-.7.9-.3.2-.6.3-.9.3-1.1 0-1.6-.8-1.6-2.3v-3.3zm6.7 5.4h-.7v-4.3l-.1-1.1.6-.1.2 1.3c.2-.4.4-.8.7-1 .3-.2.6-.3 1-.3v.8c-1.1.1-1.7 1.1-1.8 2.9v1.8zm4.9-4.8c-.4 0-.8.2-1.1.5-.3.4-.5.8-.5 1.4.2 0 .5.1.7.1.6 0 1-.1 1.3-.3.3-.2.4-.5.4-.8 0-.2-.1-.4-.2-.6-.2-.2-.4-.3-.6-.3m-.4 5c-.6 0-1.1-.2-1.4-.7-.4-.5-.6-1.1-.6-2s.2-1.6.7-2.2c.4-.6 1-.8 1.7-.8.5 0 .8.2 1.1.5.3.3.4.7.4 1.1 0 .5-.2.9-.6 1.2-.4.4-1 .6-1.9.6h-.7c0 .5.2.9.4 1.2s.5.4.9.4c.6 0 1-.2 1.4-.6l.4.5c-.5.5-1.1.8-1.8.8M64.3 21.3v3.5H52.9V2.2h3.3v19.1zm6.5.7c1 0 1.7-.1 2.2-.2v-4.4c-.2-.1-.4-.1-.8-.2-.3-.1-.7-.1-1.1-.1-.3 0-.7 0-1.1.1-.4.1-.7.2-1 .4-.3.2-.5.4-.7.7-.2.3-.3.7-.3 1.2 0 .9.2 1.6.7 1.9.7.5 1.3.6 2.1.6m-.3-14.6c1 0 1.9.2 2.6.5.7.3 1.3.8 1.7 1.4.4.6.7 1.3.9 2.1.2.8.3 1.8.3 2.8v10.3c-.5.1-1.2.3-2.2.5-1 .2-2.1.3-3.3.3-.8 0-1.6-.1-2.2-.3-.7-.2-1.3-.5-1.7-.9-.5-.4-.9-1-1.1-1.7-.3-.7-.4-1.6-.4-2.6s.2-1.8.5-2.5.7-1.2 1.2-1.6c.5-.4 1.1-.7 1.8-.9.7-.2 1.4-.3 2.2-.3.3 0 .7 0 1.1.1.4.1.8.1 1.2.3v-.7c0-.5 0-.9-.1-1.3s-.2-.8-.5-1.1c-.2-.3-.5-.6-.9-.7-.4-.2-.8-.3-1.3-.3-.7 0-1.4.1-2 .2-.6.1-1.1.3-1.5.5l-.4-3.2c.4-.2 1-.3 1.7-.5.8-.4 1.6-.4 2.4-.4m16 17.4c-1.3-3.5-2.6-7.2-3.8-11-1.2-3.8-2.3-7.7-3.4-11.5H83c.4 1.5.8 3.1 1.3 4.7.4 1.6.9 3.1 1.3 4.7.4 1.5.9 3 1.3 4.4.4 1.4.9 2.7 1.3 3.9.4-1.2.8-2.5 1.3-3.9.4-1.4.9-2.9 1.3-4.4.4-1.5.9-3.1 1.3-4.7s.9-3.1 1.3-4.7h3.5c-1.1 3.8-2.2 7.7-3.4 11.5-1.2 3.8-2.5 7.5-3.8 11h-3.2zm14.5 0h-3.2v-17h3.2v17zm.3-22c0 .7-.2 1.3-.6 1.8-.4.4-.8.7-1.4.7-.5 0-1-.2-1.4-.7-.4-.4-.6-1-.6-1.8.1-.8.3-1.4.7-1.8.4-.4.8-.7 1.4-.7.5 0 1 .2 1.4.7.3.4.5 1 .5 1.8m10.4 11.8c0-.5-.1-1.1-.2-1.5-.1-.5-.3-.9-.5-1.3s-.5-.6-.9-.8c-.3-.2-.7-.3-1.2-.3s-.9.1-1.3.3c-.4.2-.7.5-.9.9-.3.4-.4.8-.6 1.3l-.3 1.5h5.9zm-9.2 1.8c0-1.5.2-2.8.5-3.9.4-1.1.8-2.1 1.4-2.8.6-.8 1.3-1.3 2-1.7.8-.4 1.5-.6 2.3-.6 1.9 0 3.3.7 4.4 2.2 1 1.5 1.6 3.6 1.6 6.5v1.4h-9c.1 1.4.5 2.4 1.2 3.2.7.7 1.7 1.1 3 1.1.8 0 1.5-.1 2.1-.3.6-.2 1.1-.4 1.5-.6l.4 3.2c-.2.1-.4.2-.7.3-.3.1-.7.2-1 .3-.4.1-.8.2-1.3.2-.5.1-.9.1-1.4.1-1.2 0-2.2-.2-3.1-.7-.9-.4-1.6-1.1-2.2-1.9-.6-.8-1-1.7-1.3-2.8-.3-.8-.4-1.9-.4-3.2M61.7 53c-1.4 0-2.6-.3-3.6-.8C57 51.7 56 51 55.3 50c-.7-1-1.3-2.2-1.7-3.7-.4-1.5-.6-3.1-.6-5s.2-3.6.7-5c.5-1.5 1.1-2.7 1.9-3.7.8-1 1.7-1.8 2.8-2.3 1.1-.5 2.2-.8 3.5-.8.7 0 1.4.1 2 .2.6.1 1.1.3 1.6.5s.8.4 1.1.6c.3.2.5.3.6.4l-1 3.4c-.4-.3-1-.6-1.8-.9-.8-.3-1.6-.4-2.5-.4-.8 0-1.5.2-2.2.5-.7.3-1.3.8-1.8 1.5s-.9 1.5-1.2 2.5c-.3 1-.4 2.2-.4 3.6 0 1.2.1 2.3.3 3.3.2 1 .6 1.9 1 2.6.5.7 1 1.3 1.7 1.7.7.4 1.5.6 2.5.6 1.2 0 2.1-.1 2.8-.4.7-.3 1.3-.6 1.7-.8l.9 3.4c-.2.2-.5.3-.8.5-.4.2-.8.3-1.3.5s-1 .3-1.6.4c-.5-.2-1.1-.2-1.8-.2m12.2-.1c-.9 0-1.7-.2-2.3-.4-.6-.2-1.1-.6-1.5-1-.4-.4-.6-1-.8-1.7-.1-.7-.2-1.4-.2-2.3V27.9l3.2-.7v19.5c0 .5 0 .9.1 1.2.1.3.2.6.3.8.2.2.4.4.6.5.3.1.6.2 1 .3l-.4 3.4zm7.3-3.1c1 0 1.7-.1 2.2-.2v-4.4c-.2-.1-.4-.1-.8-.2-.3-.1-.7-.1-1.1-.1-.3 0-.7 0-1.1.1-.4.1-.7.2-1 .4-.3.2-.5.4-.7.7-.2.3-.3.7-.3 1.2 0 .9.2 1.6.7 1.9.6.4 1.3.6 2.1.6m-.3-14.7c1 0 1.9.2 2.6.5.7.3 1.3.8 1.7 1.4.4.6.7 1.3.9 2.1.2.8.3 1.8.3 2.8v10.3c-.5.1-1.2.3-2.2.5-1 .2-2.1.3-3.3.3-.8 0-1.6-.1-2.2-.3-.7-.2-1.3-.5-1.7-.9-.5-.4-.9-1-1.1-1.7-.3-.7-.4-1.6-.4-2.6s.2-1.8.5-2.5.7-1.2 1.2-1.6c.5-.4 1.1-.7 1.8-.9.7-.2 1.4-.3 2.2-.3.3 0 .7 0 1.1.1.4.1.8.1 1.2.3v-.7c0-.5 0-.9-.1-1.3s-.2-.8-.5-1.1c-.2-.3-.5-.6-.9-.7-.4-.2-.8-.3-1.3-.3-.7 0-1.4.1-2 .2-.6.1-1.1.3-1.5.5l-.4-3.2c.4-.2 1-.3 1.7-.5.7-.3 1.5-.4 2.4-.4m11 17.5h-3.2v-17h3.2v17zm.4-22.1c0 .7-.2 1.3-.6 1.8-.4.4-.8.7-1.4.7-.5 0-1-.2-1.4-.7-.4-.4-.6-1-.6-1.8s.2-1.4.6-1.8c.4-.4.8-.7 1.4-.7.5 0 1 .2 1.4.7.4.5.6 1.1.6 1.8m9.9 8.6c-.3-.1-.6-.2-1.1-.3-.5-.1-1-.2-1.6-.2-.3 0-.7 0-1.1.1-.4.1-.7.2-.8.2v13.7h-3.2V36.3c.6-.3 1.4-.5 2.3-.8.9-.2 1.9-.4 3-.4h.7c.3 0 .6.1.8.1.3.1.5.1.8.2.3.1.5.1.6.2l-.4 3.5zm9.6 3.3c0-.5-.1-1.1-.2-1.5-.1-.5-.3-.9-.5-1.3s-.5-.6-.9-.8c-.3-.2-.7-.3-1.2-.3s-.9.1-1.3.3c-.4.2-.7.5-.9.9-.3.4-.4.8-.6 1.3l-.3 1.5h5.9zm-9.2 1.7c0-1.5.2-2.8.5-3.9.4-1.1.8-2.1 1.4-2.8.6-.8 1.3-1.3 2-1.7.8-.4 1.5-.6 2.3-.6 1.9 0 3.3.7 4.4 2.2 1.1 1.5 1.6 3.6 1.6 6.5v1.4h-9c.1 1.4.5 2.4 1.2 3.2.7.7 1.7 1.1 3 1.1.8 0 1.5-.1 2.1-.3.6-.2 1.1-.4 1.5-.6l.4 3.4c-.2.1-.4.2-.7.3-.3.1-.7.2-1 .3-.4.1-.8.2-1.3.2-.5.1-.9.1-1.4.1-1.2 0-2.2-.2-3.1-.7-.9-.4-1.6-1.1-2.2-1.9-.6-.8-1-1.7-1.3-2.8-.3-.9-.4-2.1-.4-3.4"/><defs><path id="a" d="M40.2 11.7l-9 2.4c-.5.1-.6.5-.3.9l3 4.3c.1.2.3.3.5.3s.3-.1.5-.3l5.6-7.3c.2-.2.2-.4-.1-.4-.1 0-.2 0-.2.1"/></defs><use xlink:href="#a" overflow="visible" fill="#FFD140"/><defs><path id="b" d="M10.5 22.8l-7.2 4.9c-.4.3-.3.5.1.6l8.9 1.7h.4c-1.2-1.8-1.8-3.9-1.8-6.2 0-.4 0-.8.1-1.1-.3 0-.4 0-.5.1"/></defs><use xlink:href="#b" overflow="visible" fill="#FFD140"/><defs><path id="c" d="M34.1 21.6s.2.9.2 1.8c0 1.4-.6 3.2-.6 3.2-.1.3 0 .6.3.6.1 0 .2 0 .3-.1l7.1-2.7c.4-.2.4-.4 0-.6l-6.7-2.7c-.1 0-.2-.1-.3-.1-.2.1-.3.3-.3.6"/></defs><use xlink:href="#c" overflow="visible" fill="#FFD140"/><defs><path id="d" d="M4.4 13.8l6.1 6.4c.1.1.3.2.4.2.2 0 .4-.1.5-.4l.3-.6c.3-.8.8-1.6 1.3-2.3l1.2-2.1c.2-.4 0-.8-.4-.8l-9-1h-.1c-.5 0-.6.3-.3.6"/></defs><use xlink:href="#d" overflow="visible" fill="#FFD140"/><defs><path id="e" d="M28.6 5l-4.8 6.8c-.2.2-.2.4-.1.6 1.6.2 3.2.7 4.5 1.4l.8.2c.1 0 .2.1.3.1.3 0 .5-.2.5-.6l-.6-8.4c0-.3-.1-.4-.2-.4-.2 0-.3.1-.4.3"/></defs><use xlink:href="#e" overflow="visible" fill="#FFD140"/><defs><path id="f" d="M13.3 31.5l-2 7.5c-.1.3 0 .5.2.5.1 0 .2 0 .3-.1l7.1-4c.3-.1.3-.3.3-.5-2.3-.6-4.3-2-5.7-3.7-.1.1-.2.2-.2.3"/></defs><use xlink:href="#f" overflow="visible" fill="#FFD140"/><defs><path id="g" d="M22.4 35.4c-.4 0-.9 0-1.3-.1l3.3 6.9c.1.2.2.3.3.3.1 0 .2-.1.3-.3l2.5-7.2c.1-.3 0-.5-.2-.6-1.4.6-3.1 1-4.9 1"/></defs><use xlink:href="#g" overflow="visible" fill="#FFD140"/><defs><path id="h" d="M14.6 5.7l.7 7.9c0 .3.3.6.5.6.1 0 .2 0 .3-.1l.7-.3c.9-.5 1.9-.9 3-1.1l1.4-.5c.4-.1.5-.5.2-.8l-6.3-5.9c-.1-.1-.2-.2-.3-.2-.2-.1-.2.1-.2.4"/></defs><use xlink:href="#h" overflow="visible" fill="#FFD140"/><defs><path id="i" d="M33.4 29.3l-3.6 4c-.4.3-.3.7.1.8l8 2.7h.2c.2 0 .3-.2.1-.5l-4-7.1c-.1-.2-.3-.3-.4-.3-.2.2-.3.2-.4.4"/></defs><use xlink:href="#i" overflow="visible" fill="#FFD140"/><path fill="#EE632F" d="M20.3 48.1c-1.3-2.1-8.4-4-8.7-4.1-.1 0-6.4-1.3-10.1-1.3-.6 0-1 0-1.4.1v9.8h17.2l1.4-2c.4-.6 1.5-2.4 1.6-2.4v-.1"/><path fill="#498070" d="M44.3 40.8H44c-.5.1-1.4.3-2.6.5-.4 0-9.3 1.2-13.5 3.4-6.7 3.5-8.5 6.7-9 7.9l-.1.1h25.4l.1-11.9"/><defs><path id="j" d="M19.7 14.7l-2.4.8-1.5 1-.4.7-.5.2-1.2 1.5-.5.9-.1 1.7-.4.7.2 1.8-.2 2 1.2 1.8.3 1.7 1.2 1.3 2.2 1.2 1.6 1 3.4.6H25c.5 0 2.3-.7 2.3-.7l1.6-1.1 2.1-1.6 1.3-2.4.3-2.6v-2.6l-.5-3-1-1.2-2.1-1.5-.7-1.1L26 15l-1.7-.6L23 14l-3.3.7z"/></defs><use xlink:href="#j" overflow="visible" fill="#FFD140"/><defs><path id="k" d="M30.7 2.4l-.3 1.2c.1.2.2.4.2.6l.6 8 9.7-2.5h.3c.1 0 .3 0 .4.1l2.7-1.6V2.4H30.7z"/></defs><use xlink:href="#k" overflow="visible" fill="#559AD0"/><defs><path id="l" d="M42.8 25.5l-7.3 3.1 4.4 7.9c.1.3.2.5.2.8l2.8 2.2c.4-.1.6-.1.9-.2l.6-.1v-14h-1l-.6.3"/></defs><use xlink:href="#l" overflow="visible" fill="#559AD0"/><path fill="#559AD0" d="M3.7 11.7h.2l9.8 1.3-.7-8c0-.3 0-.6.2-.8l-1.1-1.8H.1v8.2L3 11.8c.2-.1.5-.1.7-.1zm-2.5 16c.1-.2.3-.5.5-.6l8-5.6-7.1-7.4c-.2-.2-.3-.4-.4-.7l-2.1-.8V28l1.1-.3z"/><path fill="#75C4EB" d="M28.7 2.4H14.4l.6 1.1c.2.1.4.2.5.3l7 6.4 5.4-6.7c.2-.2.4-.4.7-.5l.1-.6M8.4 42l1.2-1.7c-.1-.2-.1-.5 0-.7l2-7.9-9.4-1.9c-.2 0-.4-.1-.5-.2l-1.6.5v11.3c.4 0 .9-.1 1.4-.1 2 0 4.7.4 6.9.7zm17.8 1.5c0 .1-.1.2-.2.3v.2l1.2-.6c3.8-2 10.8-3.1 13.2-3.4l-1.6-1.3h-.2c-.2 0-.3 0-.5-.1l-9-3.1-2.9 8z"/><path fill="#559AD0" d="M11.8 41.2c-.2.1-.4.2-.6.2l-.7.9c.9.2 1.4.3 1.4.3h.1c1.8.5 7.7 2.2 9.4 4.5.8-.7 1.7-1.3 2.8-2l-.1-.8c-.3-.1-.5-.4-.7-.7l-3.7-7-7.9 4.6z"/><path fill="#75C4EB" d="M44.3 10.4l-1.7 1c0 .3-.1.5-.3.7l-6.2 7.8 6.6 2.9c.2.1.4.3.6.4h.9V10.4z"/></svg>